<svg width="90" height="18" viewBox="0 0 90 18" fill="none" xmlns="http://www.w3.org/2000/svg">
<path d="M8.07668 2.21993C8.41827 1.39863 9.58173 1.39864 9.92332 2.21993L11.146 5.15952C11.29 5.50576 11.6156 5.74233 11.9894 5.77229L15.1629 6.02671C16.0496 6.0978 16.4091 7.2043 15.7336 7.78297L13.3157 9.85416C13.0309 10.0981 12.9065 10.4809 12.9935 10.8456L13.7322 13.9425C13.9386 14.8077 12.9973 15.4916 12.2382 15.0279L9.52125 13.3684C9.20124 13.1729 8.79876 13.1729 8.47875 13.3684L5.76175 15.0279C5.00266 15.4916 4.0614 14.8077 4.26779 13.9425L5.0065 10.8456C5.09351 10.4809 4.96914 10.0981 4.68435 9.85416L2.26645 7.78297C1.59091 7.2043 1.95044 6.0978 2.83709 6.02671L6.01063 5.77229C6.38442 5.74233 6.71003 5.50576 6.85403 5.15952L8.07668 2.21993Z" fill="#EDAB00"/>
<path d="M44.0767 2.21993C44.4183 1.39863 45.5817 1.39864 45.9233 2.21993L47.146 5.15952C47.29 5.50576 47.6156 5.74233 47.9894 5.77229L51.1629 6.02671C52.0496 6.0978 52.4091 7.2043 51.7336 7.78297L49.3157 9.85416C49.0309 10.0981 48.9065 10.4809 48.9935 10.8456L49.7322 13.9425C49.9386 14.8077 48.9973 15.4916 48.2382 15.0279L45.5213 13.3684C45.2012 13.1729 44.7988 13.1729 44.4787 13.3684L41.7618 15.0279C41.0027 15.4916 40.0614 14.8077 40.2678 13.9425L41.0065 10.8456C41.0935 10.4809 40.9691 10.0981 40.6843 9.85416L38.2664 7.78297C37.5909 7.2043 37.9504 6.0978 38.8371 6.02671L42.0106 5.77229C42.3844 5.74233 42.71 5.50576 42.854 5.15952L44.0767 2.21993Z" fill="#EDAB00"/>
<path d="M26.0767 2.21993C26.4183 1.39863 27.5817 1.39864 27.9233 2.21993L29.146 5.15952C29.29 5.50576 29.6156 5.74233 29.9894 5.77229L33.1629 6.02671C34.0496 6.0978 34.4091 7.2043 33.7336 7.78297L31.3157 9.85416C31.0309 10.0981 30.9065 10.4809 30.9935 10.8456L31.7322 13.9425C31.9386 14.8077 30.9973 15.4916 30.2382 15.0279L27.5213 13.3684C27.2012 13.1729 26.7988 13.1729 26.4787 13.3684L23.7618 15.0279C23.0027 15.4916 22.0614 14.8077 22.2678 13.9425L23.0065 10.8456C23.0935 10.4809 22.9691 10.0981 22.6843 9.85416L20.2664 7.78297C19.5909 7.2043 19.9504 6.0978 20.8371 6.02671L24.0106 5.77229C24.3844 5.74233 24.71 5.50576 24.854 5.15952L26.0767 2.21993Z" fill="#EDAB00"/>
<path d="M62.0767 2.21993C62.4183 1.39863 63.5817 1.39864 63.9233 2.21993L65.146 5.15952C65.29 5.50576 65.6156 5.74233 65.9894 5.77229L69.1629 6.02671C70.0496 6.0978 70.4091 7.2043 69.7336 7.78297L67.3157 9.85416C67.0309 10.0981 66.9065 10.4809 66.9935 10.8456L67.7322 13.9425C67.9386 14.8077 66.9973 15.4916 66.2382 15.0279L63.5213 13.3684C63.2012 13.1729 62.7988 13.1729 62.4787 13.3684L59.7618 15.0279C59.0027 15.4916 58.0614 14.8077 58.2678 13.9425L59.0065 10.8456C59.0935 10.4809 58.9691 10.0981 58.6843 9.85416L56.2664 7.78297C55.5909 7.2043 55.9504 6.0978 56.8371 6.02671L60.0106 5.77229C60.3844 5.74233 60.71 5.50576 60.854 5.15952L62.0767 2.21993Z" fill="#EDAB00"/>
<path d="M80.0767 2.21993C80.4183 1.39863 81.5817 1.39864 81.9233 2.21993L83.146 5.15952C83.29 5.50576 83.6156 5.74233 83.9894 5.77229L87.1629 6.02671C88.0496 6.0978 88.4091 7.2043 87.7336 7.78297L85.3157 9.85416C85.0309 10.0981 84.9065 10.4809 84.9935 10.8456L85.7322 13.9425C85.9386 14.8077 84.9973 15.4916 84.2382 15.0279L81.5213 13.3684C81.2012 13.1729 80.7988 13.1729 80.4787 13.3684L77.7618 15.0279C77.0027 15.4916 76.0614 14.8077 76.2678 13.9425L77.0065 10.8456C77.0935 10.4809 76.9691 10.0981 76.6843 9.85416L74.2664 7.78297C73.5909 7.2043 73.9504 6.0978 74.8371 6.02671L78.0106 5.77229C78.3844 5.74233 78.71 5.50576 78.854 5.15952L80.0767 2.21993Z" fill="#EDAB00"/>
</svg>
